<?xml version="1.0" standalone="no"?><!-- Generator: Gravit.io --><svg xmlns="http://www.w3.org/2000/svg" xmlns:xlink="http://www.w3.org/1999/xlink" style="isolation:isolate" viewBox="0 0 297 65" width="297" height="65"><path d=" M 10.344 5.876 C 6.888 5.876 4.456 8.564 4.456 11.7 C 4.456 14.964 6.888 17.396 10.344 17.396 C 13.8 17.396 16.296 14.964 16.296 11.7 C 16.296 8.564 13.8 5.876 10.344 5.876 Z  M 15.464 53.3 L 15.464 21.172 L 5.224 21.172 L 5.224 53.3 L 15.464 53.3 Z  M 44.84 43.828 C 43.496 44.596 41.576 45.108 40.168 45.108 C 37.48 45.108 35.88 43.764 35.88 40.436 L 35.88 29.3 L 45.352 29.3 L 45.352 21.172 L 35.88 21.172 L 35.88 11.7 L 25.64 11.7 L 25.64 21.172 L 19.816 21.172 L 19.816 29.3 L 25.64 29.3 L 25.64 41.46 C 25.64 49.908 30.44 54.26 38.44 54.26 C 42.088 54.26 44.712 53.236 47.208 51.892 L 44.84 43.828 Z  M 72.552 43.828 C 71.208 44.596 69.288 45.108 67.88 45.108 C 65.192 45.108 63.592 43.764 63.592 40.436 L 63.592 29.3 L 73.064 29.3 L 73.064 21.172 L 63.592 21.172 L 63.592 11.7 L 53.352 11.7 L 53.352 21.172 L 47.528 21.172 L 47.528 29.3 L 53.352 29.3 L 53.352 41.46 C 53.352 49.908 58.152 54.26 66.152 54.26 C 69.8 54.26 72.424 53.236 74.92 51.892 L 72.552 43.828 Z  M 112.616 21.172 L 102.376 21.172 L 102.376 23.732 C 99.88 21.492 96.552 20.212 92.392 20.212 C 83.88 20.212 76.712 27.124 76.712 37.236 C 76.712 47.412 83.88 54.26 92.392 54.26 C 96.552 54.26 99.88 52.98 102.376 50.74 L 102.376 53.3 L 112.616 53.3 L 112.616 21.172 Z  M 94.504 45.556 C 90.024 45.556 86.76 42.228 86.76 37.236 C 86.76 32.308 90.024 28.916 94.504 28.916 C 98.664 28.916 102.376 32.308 102.376 37.236 C 102.376 42.228 98.664 45.556 94.504 45.556 Z  M 135.464 45.3 C 130.856 45.3 127.784 41.972 127.784 37.236 C 127.784 32.564 130.856 29.172 135.464 29.172 C 138.728 29.172 141.352 30.964 142.248 34.868 L 151.848 32.564 C 150.056 25.012 143.272 20.212 135.464 20.212 C 125.864 20.212 117.928 27.124 117.928 37.236 C 117.928 47.412 125.864 54.26 135.464 54.26 C 143.464 54.26 150.248 49.332 151.848 41.716 L 142.44 39.668 C 141.352 43.572 138.728 45.3 135.464 45.3 Z  M 172.584 45.3 C 167.976 45.3 164.904 41.972 164.904 37.236 C 164.904 32.564 167.976 29.172 172.584 29.172 C 175.848 29.172 178.472 30.964 179.368 34.868 L 188.968 32.564 C 187.176 25.012 180.392 20.212 172.584 20.212 C 162.984 20.212 155.048 27.124 155.048 37.236 C 155.048 47.412 162.984 54.26 172.584 54.26 C 180.584 54.26 187.368 49.332 188.968 41.716 L 179.56 39.668 C 178.472 43.572 175.848 45.3 172.584 45.3 Z  M 225.768 37.236 C 225.576 26.74 218.28 20.212 209.192 20.212 C 199.848 20.212 192.168 27.124 192.168 37.236 C 192.168 47.412 199.848 54.26 209.128 54.26 C 216.488 54.26 222.312 50.996 225.064 44.212 L 215.976 42.356 C 214.248 45.492 211.496 46.068 209.128 46.068 C 205.672 46.068 203.048 43.7 202.216 39.86 L 225.768 39.86 L 225.768 37.236 Z  M 209.192 28.532 C 212.136 28.532 214.696 30.132 215.656 33.588 L 202.408 33.588 C 203.368 30.324 206.312 28.532 209.192 28.532 Z  M 228.904 44.916 C 229.992 51.508 236.456 54.26 244.008 54.26 C 252.456 54.26 258.6 50.548 258.6 43.444 C 258.6 38.708 255.784 35.06 249.704 33.78 L 242.152 32.244 C 240.104 31.796 239.72 30.9 239.72 30.004 C 239.72 28.852 240.616 27.508 243.368 27.508 C 246.504 27.508 248.424 29.3 248.744 31.284 L 258.088 29.428 C 256.808 23.86 251.496 20.212 243.496 20.212 C 235.368 20.212 229.672 24.5 229.672 31.092 C 229.672 36.148 233.064 39.348 239.016 40.436 L 245.544 41.716 C 247.912 42.164 248.744 42.996 248.744 44.084 C 248.744 45.492 247.272 46.644 244.584 46.644 C 241.832 46.644 239.336 45.62 238.888 42.868 L 228.904 44.916 Z  M 261.864 44.916 C 262.952 51.508 269.416 54.26 276.968 54.26 C 285.416 54.26 291.56 50.548 291.56 43.444 C 291.56 38.708 288.744 35.06 282.664 33.78 L 275.112 32.244 C 273.064 31.796 272.68 30.9 272.68 30.004 C 272.68 28.852 273.576 27.508 276.328 27.508 C 279.464 27.508 281.384 29.3 281.704 31.284 L 291.048 29.428 C 289.768 23.86 284.456 20.212 276.456 20.212 C 268.328 20.212 262.632 24.5 262.632 31.092 C 262.632 36.148 266.024 39.348 271.976 40.436 L 278.504 41.716 C 280.872 42.164 281.704 42.996 281.704 44.084 C 281.704 45.492 280.232 46.644 277.544 46.644 C 274.792 46.644 272.296 45.62 271.848 42.868 L 261.864 44.916 Z " fill-rule="evenodd" fill="rgb(53, 73, 134)"/></svg>
